<svg t="1734108015160" color="currentColor" fill="currentColor" class="icon" viewBox="0 0 1024 1024" version="1.1" xmlns="http://www.w3.org/2000/svg" p-id="9611" width="200" height="200"><path d="M904.70899355 382.28672305c0-56.10128467-18.70042852-104.72239863-52.36119843-149.60342637 11.22025693-48.62111396 7.48017158-100.9823124-11.22025694-145.86334014-3.74008535-11.22025693-11.22025693-18.70042852-22.44051474-22.44051386-14.96034229-3.74008535-63.58145625-11.22025693-164.56376865 52.36119932-82.28188477-18.70042852-168.30385489-18.70042852-246.84565342 0C306.29528896 53.15918574 257.674175 60.63935645 242.71383271 64.37944268c-11.22025693 3.74008535-18.70042852 11.22025693-22.44051386 22.44051386-22.44051387 48.62111396-26.18059922 97.24222705-11.22025693 145.86334014-33.6607708 44.88102773-52.36119932 97.24222705-52.36119932 149.60342637 0 201.96462568 112.20256934 265.54608193 216.92496797 287.9865958-7.48017158 26.18059922-11.22025693 48.62111396-11.22025693 71.06162783v3.74008535c-78.54179854 14.96034229-104.72239863-14.96034229-134.64308321-56.10128466-18.70042852-26.18059922-41.14094238-56.10128467-82.28188476-63.58145625-18.70042852-3.74008535-41.14094238 7.48017158-44.88102774 26.18059921-3.74008535 18.70042852 7.48017158 41.14094238 26.18059922 44.88102774 11.22025693 3.74008535 26.18059922 18.70042852 41.14094238 37.40085703 33.6607708 44.88102773 82.28188477 104.72239863 194.48445411 89.76205547V887.19828682c0 22.44051387 14.96034229 37.40085615 37.40085703 37.40085703s37.40085615-14.96034229 37.40085615-37.40085703v-108.46248399-37.40085616c0-26.18059922 7.48017158-48.62111396 26.18059922-67.32154247 11.22025693-11.22025693 14.96034229-26.18059922 7.48017158-37.40085615-3.74008535-14.96034229-14.96034229-22.44051387-29.92068545-26.1806001-108.46248398-14.96034229-209.44479638-48.62111396-209.44479639-224.40513868 0-44.88102773 14.96034229-82.28188477 44.88102774-115.94265556 11.22025693-11.22025693 11.22025693-26.18059922 7.48017158-37.40085704-11.22025693-33.6607708-11.22025693-63.58145625-3.74008536-93.50214081 18.70042852 3.74008535 52.36119932 14.96034229 97.24222706 48.62111308 11.22025693 7.48017158 22.44051387 7.48017158 33.6607708 3.74008624 78.54179854-22.44051387 164.56376865-22.44051387 243.10556719 0 11.22025693 3.74008535 22.44051387 0 29.92068544-3.74008624 48.62111396-33.6607708 82.28188477-44.88102773 97.24222706-48.62111308 7.48017158 29.92068545 7.48017158 59.84137089-3.74008536 89.76205547-3.74008535 14.96034229-3.74008535 29.92068545 7.4801707 37.40085703 29.92068545 29.92068545 44.88102773 71.06162783 44.88102774 115.94265469 0 175.78402559-100.9823124 213.18488261-209.44479639 224.40513955-14.96034229 0-26.18059922 11.22025693-29.92068544 26.18059922-3.74008535 14.96034229 0 29.92068545 7.48017158 37.40085703 18.70042852 18.70042852 26.18059922 44.88102773 26.18059922 71.06162782V887.19828682c0 22.44051387 14.96034229 37.40085615 37.40085703 37.40085703s37.40085615-14.96034229 37.40085615-37.40085703v-142.12325479c3.74008535-26.18059922 0-48.62111396-11.22025693-71.06162783 89.76205547-18.70042852 216.92496797-78.54179854 216.92496797-291.72668115z" p-id="9612"></path></svg>